# xmcd CD database file
# Copyright (C) 1993-1998 Ti Kan
# 
# Track frame offsets:
#     150
#     25077
#     45675
#     62727
#     84580
#     101697
#     127985
#     150472
#     176897
#     203820
# 
# Disc length: 3111 seconds
# 
# Revision: 1
# Processed by: cddbd v1.4b41PL1 Copyright (c) Steve Scherf et al.
# Submitted via: DiscPlay 4.0.4
# 
DISCID=7e0c250a
DTITLE=Diana Brown and Barrie K. Sharp - The Black, The White, The Yellow And 
DTITLE=the Brown
DYEAR=1900
DGENRE=
TTITLE0=Masterplan (Ropeman Mix)
TTITLE1=Colours(black, White, Yellow, Brown, Red
TTITLE2=Eating Me Alive (Part I)
TTITLE3=No Turning
TTITLE4=Hear My Prayer
TTITLE5=Don't Cross The Tracks
TTITLE6=Love Or Nothing (Onceller Mix)
TTITLE7=Tell It Like It Is
TTITLE8=Sunworshippers (Part I and Part II)
TTITLE9=Free
EXTD=
EXTT0=
EXTT1=
EXTT2=
EXTT3=
EXTT4=
EXTT5=
EXTT6=
EXTT7=
EXTT8=
EXTT9=
PLAYORDER=
